<?xml version="1.0" encoding="utf-8"?>
<!-- Generated by IcoMoon.io -->
<!DOCTYPE svg PUBLIC "-//W3C//DTD SVG 1.1//EN" "http://www.w3.org/Graphics/SVG/1.1/DTD/svg11.dtd">
<svg version="1.1" xmlns="http://www.w3.org/2000/svg" xmlns:xlink="http://www.w3.org/1999/xlink" width="12" height="14" viewBox="0 0 12 14">
<path d="M3.875 10.5q0 0.469-0.332 0.797t-0.793 0.328q-0.469 0-0.797-0.328t-0.328-0.797 0.328-0.797 0.797-0.328q0.461 0 0.793 0.328t0.332 0.797zM7.25 12q0 0.414-0.293 0.707t-0.707 0.293-0.707-0.293-0.293-0.707 0.293-0.707 0.707-0.293 0.707 0.293 0.293 0.707zM2.5 7q0 0.516-0.367 0.883t-0.883 0.367-0.883-0.367-0.367-0.883 0.367-0.883 0.883-0.367 0.883 0.367 0.367 0.883zM10.625 10.5q0 0.359-0.258 0.617t-0.617 0.258-0.617-0.258-0.258-0.617 0.258-0.617 0.617-0.258 0.617 0.258 0.258 0.617zM4.125 3.5q0 0.57-0.402 0.973t-0.973 0.402-0.973-0.402-0.402-0.973 0.402-0.973 0.973-0.402 0.973 0.402 0.402 0.973zM7.75 2q0 0.625-0.438 1.062t-1.062 0.438-1.062-0.438-0.438-1.062 0.438-1.062 1.062-0.438 1.062 0.438 0.438 1.062zM12 7q0 0.312-0.219 0.531t-0.531 0.219-0.531-0.219-0.219-0.531 0.219-0.531 0.531-0.219 0.531 0.219 0.219 0.531zM10.375 3.5q0 0.258-0.184 0.441t-0.441 0.184-0.441-0.184-0.184-0.441 0.184-0.441 0.441-0.184 0.441 0.184 0.184 0.441z" fill="#444444"></path>
</svg>
