<?xml version="1.0" encoding="utf-8"?>
<!-- Generated by IcoMoon.io -->
<!DOCTYPE svg PUBLIC "-//W3C//DTD SVG 1.1//EN" "http://www.w3.org/Graphics/SVG/1.1/DTD/svg11.dtd">
<svg version="1.1" xmlns="http://www.w3.org/2000/svg" xmlns:xlink="http://www.w3.org/1999/xlink" width="18" height="14" viewBox="0 0 18 14">
<path d="M2.516 6.617h-0.117q-0.148 0-0.148-0.141 0-0.219 0.148-0.664 0.039-0.117 0.117-0.152t0.219-0.035q0.602 0 0.602 0.383 0 0.32-0.238 0.465t-0.582 0.145zM5.188 7.875q-0.367 0-0.367-0.227 0-0.484 0.961-0.484l0.023 0.023q-0.039 0.688-0.617 0.688zM11.234 6.633h-0.117q-0.148 0-0.148-0.148 0-0.219 0.148-0.664 0.039-0.117 0.113-0.148t0.223-0.031q0.602 0 0.602 0.383 0 0.32-0.238 0.465t-0.582 0.145zM13.906 7.883q-0.367 0-0.367-0.234 0-0.484 0.961-0.484l0.023 0.023q-0.039 0.695-0.617 0.695zM2.914 5.016h-1q-0.062 0-0.113 0.031t-0.066 0.059-0.055 0.098q-0.023 0.055-0.352 1.484t-0.328 1.5q0 0.055 0.043 0.098t0.105 0.043h0.484q0.195 0 0.254-0.27l0.117-0.539t0.254-0.27q0.367 0 0.684-0.059t0.629-0.191 0.496-0.41 0.184-0.66q0-0.281-0.113-0.477t-0.32-0.285-0.418-0.121-0.484-0.031zM5.617 5.766q-0.297 0-0.578 0.047-0.016 0-0.066 0.008t-0.070 0.012l-0.059 0.012t-0.059 0.016-0.051 0.023-0.051 0.031-0.039 0.039-0.035 0.055-0.031 0.070q-0.070 0.227-0.070 0.305t0.070 0.078q0.039 0 0.168-0.039t0.152-0.047q0.234-0.062 0.453-0.062 0.578 0 0.578 0.281 0 0.086-0.078 0.109-0.062 0.016-0.141 0.023t-0.168 0.012-0.137 0.012q-0.297 0.031-0.504 0.078t-0.441 0.152-0.355 0.305-0.121 0.488q0 0.297 0.203 0.465t0.5 0.168q0.187 0 0.355-0.051t0.258-0.102 0.301-0.184q-0.023 0.055-0.023 0.117t0.043 0.105 0.098 0.043h0.438q0.008-0.008 0.055-0.027t0.059-0.027 0.039-0.027 0.039-0.043 0.020-0.062l0.352-1.516q0.031-0.102 0.031-0.234 0-0.633-1.133-0.633zM9.742 5.805h-0.578q-0.172 0-0.305 0.18-0.039 0.055-0.23 0.398t-0.363 0.637-0.203 0.301l-0.039-0.031q0-0.602-0.211-1.297-0.008-0.039-0.027-0.066t-0.047-0.051-0.051-0.039-0.066-0.023-0.066-0.012-0.074-0.008-0.070-0.004h-0.145q-0.297 0-0.297 0.164l0.008 0.039q0.039 0.414 0.195 1.18t0.195 1.117q0.016 0.125 0.016 0.187 0 0.148-0.238 0.48t-0.238 0.457q0 0.102 0.312 0.102 0.477 0 0.594-0.195l1.914-3.242q0.078-0.156 0.078-0.203 0-0.070-0.062-0.070zM11.633 5.031h-1.008q-0.141 0-0.227 0.18-0.047 0.102-0.363 1.496t-0.316 1.488q0 0.156 0.336 0.156h0.199t0.074-0.008 0.066-0.016 0.066-0.023 0.051-0.035 0.043-0.047 0.023-0.066l0.164-0.711q0.016-0.078 0.082-0.133t0.152-0.055q0.367 0 0.684-0.055t0.629-0.191 0.496-0.41 0.184-0.656q0-0.281-0.113-0.477t-0.32-0.285-0.418-0.121-0.484-0.031zM14.336 5.766q-0.203 0-0.578 0.047-0.297 0.047-0.375 0.125-0.055 0.062-0.086 0.148-0.062 0.187-0.062 0.305 0 0.078 0.062 0.078 0.008 0 0.32-0.094 0.234-0.062 0.453-0.062 0.578 0 0.578 0.281 0 0.094-0.078 0.109-0.031 0.008-0.445 0.055-0.297 0.031-0.504 0.078t-0.441 0.152-0.355 0.305-0.121 0.488 0.203 0.457 0.5 0.168q0.187 0 0.352-0.047t0.266-0.102 0.297-0.187q-0.023 0.117-0.023 0.125 0 0.039 0.016 0.066t0.051 0.043 0.062 0.027 0.082 0.016 0.074 0.004h0.137q0.328 0 0.375-0.195l0.352-1.516q0.023-0.117 0.023-0.242 0-0.633-1.133-0.633zM16.852 5.055h-0.43q-0.195 0-0.258 0.312-0.078 0.344-0.285 1.305t-0.332 1.484v0.039q0 0.125 0.125 0.141h0.453q0.078 0 0.145-0.051t0.082-0.129l0.648-2.922h-0.008l0.008-0.039q0-0.055-0.043-0.098t-0.105-0.043zM18 2v10q0 0.406-0.297 0.703t-0.703 0.297h-16q-0.406 0-0.703-0.297t-0.297-0.703v-10q0-0.406 0.297-0.703t0.703-0.297h16q0.406 0 0.703 0.297t0.297 0.703z" fill="#444444"></path>
</svg>
