<?xml version="1.0" encoding="utf-8"?>
<!-- Generated by IcoMoon.io -->
<!DOCTYPE svg PUBLIC "-//W3C//DTD SVG 1.1//EN" "http://www.w3.org/Graphics/SVG/1.1/DTD/svg11.dtd">
<svg version="1.1" xmlns="http://www.w3.org/2000/svg" xmlns:xlink="http://www.w3.org/1999/xlink" width="14" height="14" viewBox="0 0 14 14">
<path d="M7.422 8.93q0.055-0.055 0.137-0.055t0.137 0.055 0.055 0.141-0.055 0.141q-0.508 0.5-1.625 0.5h-0.016q-1.117 0-1.617-0.5-0.062-0.055-0.062-0.141t0.062-0.141q0.055-0.055 0.137-0.055t0.137 0.055q0.383 0.398 1.344 0.398h0.016q0.953 0 1.352-0.398zM5.242 7.211q0 0.289-0.203 0.5t-0.492 0.211-0.492-0.211-0.203-0.5 0.203-0.492 0.492-0.203 0.492 0.203 0.203 0.492zM9.484 3.805q-0.227 0-0.391-0.164t-0.164-0.391q0-0.234 0.164-0.398t0.391-0.164q0.234 0 0.398 0.164t0.164 0.398q0 0.227-0.164 0.391t-0.398 0.164zM9.5 1q1.031 0 1.766 0.734t0.734 1.773v6.984q0 1.039-0.734 1.773t-1.766 0.734h-7q-1.031 0-1.766-0.734t-0.734-1.773v-6.984q0-1.039 0.734-1.773t1.766-0.734h7zM10.32 7.344q0.273-0.109 0.445-0.355t0.172-0.551q0-0.398-0.281-0.684t-0.68-0.285q-0.469 0-0.766 0.375-1.18-0.836-2.93-0.898l0.648-2.070 1.609 0.383q0.008 0.391 0.285 0.664t0.66 0.273q0.391 0 0.672-0.277t0.281-0.668-0.281-0.672-0.672-0.281q-0.281 0-0.516 0.16t-0.352 0.418l-1.773-0.422q-0.070-0.016-0.137 0.020t-0.090 0.113l-0.742 2.359q-1.75 0.031-2.977 0.883-0.281-0.336-0.727-0.336-0.398 0-0.68 0.285t-0.281 0.684q0 0.289 0.152 0.527t0.41 0.355q-0.055 0.195-0.055 0.422 0 0.766 0.578 1.418t1.574 1.031 2.176 0.379q1.172 0 2.168-0.379t1.574-1.031 0.578-1.418q0-0.211-0.047-0.422zM7.586 6.516q0.289 0 0.492 0.203t0.203 0.492-0.203 0.5-0.492 0.211-0.492-0.211-0.203-0.5 0.203-0.492 0.492-0.203z" fill="#444444"></path>
</svg>
