<?xml version="1.0" encoding="utf-8"?>
<!-- Generator: Adobe Illustrator 18.1.1, SVG Export Plug-In . SVG Version: 6.00 Build 0)  -->
<svg version="1.1" id="Layer_1" xmlns="http://www.w3.org/2000/svg" xmlns:xlink="http://www.w3.org/1999/xlink" x="0px" y="0px"
	 viewBox="0 0 792 612" enable-background="new 0 0 792 612" xml:space="preserve">
<radialGradient id="SVGID_1_" cx="152.9535" cy="300.949" r="35.4742" gradientTransform="matrix(-1 0 0 1 359.864 0)" gradientUnits="userSpaceOnUse">
	<stop  offset="0" style="stop-color:#E2231A"/>
	<stop  offset="0.3671" style="stop-color:#E0231A"/>
	<stop  offset="0.5541" style="stop-color:#D82119"/>
	<stop  offset="0.7004" style="stop-color:#CB1E18"/>
	<stop  offset="0.8257" style="stop-color:#B81A16"/>
	<stop  offset="0.9363" style="stop-color:#A01513"/>
	<stop  offset="1" style="stop-color:#8E1111"/>
</radialGradient>
<circle fill="url(#SVGID_1_)" cx="206.9" cy="300.9" r="35.5"/>
<g>
	<path fill="#E2231A" d="M304.5,321.7h-12.3v-23.6l-11.1,13.7h-1L269,298.1v23.6h-12v-40.8h11.2l12.5,15.3l12.6-15.3h11.2V321.7z"/>
	<path fill="#E2231A" d="M338.7,321.7h-30.8v-40.8h30.3v8.2h-18v7.5h17.1v8.2h-17.1v8.7h18.5V321.7z"/>
	<path fill="#E2231A" d="M383.3,302.1c0,4.2-0.8,7.5-2.3,10.1c-1.5,2.5-3.3,4.6-5.4,6.2c-2.9,2.3-7,3.4-12.3,3.4h-22v-40.8h17
		c2.6,0,4.7,0.1,6.6,0.4c1.8,0.3,3.5,0.6,4.9,1.1s2.7,1,3.7,1.6c1,0.6,1.9,1.2,2.7,1.9c1.4,1.1,2.6,2.5,3.7,4c1,1.6,1.9,3.3,2.5,5.4
		C383,297.4,383.3,299.7,383.3,302.1z M370.8,301.5c0-3.3-0.6-5.9-1.9-7.8s-2.8-3.1-4.6-3.7c-1.8-0.6-3.6-0.9-5.4-0.9h-5.2v24.2h5.2
		c3.2,0,6-0.8,8.4-2.3C369.6,309.4,370.8,306.3,370.8,301.5z"/>
	<path fill="#174599" d="M440.6,280.6h5.9l-16.6,41.3h-1.3l-13.4-33.5l-13.6,33.5h-1.3l-16.6-41.3h5.9l11.3,28.4l11.4-28.4h5.6
		l11.5,28.4L440.6,280.6z"/>
	<path fill="#174599" d="M454.9,280.4h4.1l18.4,41.4h-6l-5.5-12.2h-17.6l-5.1,12.2h-6.1L454.9,280.4z M463.6,304.3l-6.6-14.9
		l-6.2,14.9H463.6z"/>
	<path fill="#174599" d="M471.9,280.5h34.4v5.2h-14.3v36H486v-36h-14.1V280.5z"/>
	<path fill="#174599" d="M541.2,312.2v6.5c-4.3,2.4-9.3,3.5-15,3.5c-4.6,0-8.5-0.9-11.7-2.8c-3.2-1.8-5.7-4.4-7.6-7.6
		c-1.9-3.2-2.8-6.7-2.8-10.5c0-6,2.1-11,6.4-15.1c4.3-4.1,9.5-6.1,15.8-6.1c4.3,0,9.1,1.1,14.4,3.4v6.3c-4.8-2.7-9.5-4.1-14.1-4.1
		c-4.7,0-8.6,1.5-11.7,4.5s-4.7,6.7-4.7,11.2c0,4.5,1.5,8.2,4.6,11.1s7,4.4,11.7,4.4C531.6,316.8,536.5,315.2,541.2,312.2z"/>
	<path fill="#174599" d="M577.2,280.6h5.9v41.1h-5.9v-17.9h-23.1v17.9h-5.9v-41.1h5.9v17.8h23.1V280.6z"/>
</g>
<g>
	<path fill="#FFFFFF" d="M235.2,302.8c0,15.6-12.7,28.3-28.3,28.3c-11.4,0-21.7-6.9-26.1-17.3l-4,0.8l4-11.8l8.2,9.3l-3.8,0.8
		c3.9,8.3,12.3,13.7,21.6,13.7C220,326.6,235.2,315.9,235.2,302.8"/>
	<path fill="#FFFFFF" d="M178.6,299.1c0-15.6,12.7-28.3,28.3-28.3c11.4,0,21.7,6.9,26.1,17.3l4-0.8l-4,11.8l-8.2-9.3l3.8-0.8
		c-3.9-8.3-12.3-13.7-21.6-13.7C193.8,275.3,178.6,286,178.6,299.1"/>
</g>
<polygon fill="#FFFFFF" points="222.6,296.8 211.1,296.8 211.1,285.3 202.7,285.3 202.7,296.8 191.2,296.8 191.2,305.1 202.7,305.1 
	202.7,316.6 211.1,316.6 211.1,305.1 222.6,305.1 "/>
<g opacity="0.4">
	<path fill="#174599" d="M398.3,324.3h4v1h-2.9v2.1h2.9v1h-2.9v3.5h-1.1V324.3z"/>
	<path fill="#174599" d="M407.1,324.2c1.2,0,2.1,0.4,2.9,1.1c0.8,0.7,1.2,1.7,1.2,2.8s-0.4,2-1.2,2.7s-1.8,1.1-2.9,1.1
		c-1.1,0-2.1-0.4-2.8-1.1s-1.1-1.6-1.1-2.7c0-1.1,0.4-2,1.1-2.8C405,324.6,405.9,324.2,407.1,324.2z M407.1,325.2
		c-0.9,0-1.6,0.3-2.1,0.8s-0.8,1.2-0.8,2.1c0,0.8,0.3,1.5,0.8,2s1.2,0.8,2.1,0.8c0.8,0,1.5-0.3,2.1-0.8s0.8-1.2,0.8-2
		c0-0.8-0.3-1.5-0.8-2C408.6,325.5,407.9,325.2,407.1,325.2z"/>
	<path fill="#174599" d="M416.1,324.2c1.2,0,2.1,0.4,2.9,1.1c0.8,0.7,1.2,1.7,1.2,2.8s-0.4,2-1.2,2.7s-1.8,1.1-2.9,1.1
		c-1.1,0-2.1-0.4-2.8-1.1s-1.1-1.6-1.1-2.7c0-1.1,0.4-2,1.1-2.8C414,324.6,415,324.2,416.1,324.2z M416.2,325.2
		c-0.9,0-1.6,0.3-2.1,0.8s-0.8,1.2-0.8,2.1c0,0.8,0.3,1.5,0.8,2s1.2,0.8,2.1,0.8c0.8,0,1.5-0.3,2.1-0.8s0.8-1.2,0.8-2
		c0-0.8-0.3-1.5-0.8-2C417.7,325.5,417,325.2,416.2,325.2z"/>
	<path fill="#174599" d="M421.5,331.8v-7.5h2.5c1,0,1.8,0.2,2.4,0.5c0.6,0.3,1.1,0.8,1.4,1.3c0.4,0.6,0.5,1.2,0.5,1.9
		c0,0.5-0.1,1-0.3,1.4c-0.2,0.5-0.5,0.9-0.8,1.2c-0.4,0.4-0.8,0.6-1.3,0.8c-0.3,0.1-0.5,0.2-0.8,0.2c-0.2,0-0.7,0.1-1.4,0.1H421.5z
		 M423.9,325.3h-1.3v5.6h1.4c0.5,0,1,0,1.2-0.1s0.5-0.2,0.7-0.3c0.2-0.1,0.4-0.3,0.5-0.4c0.5-0.5,0.8-1.2,0.8-2c0-0.8-0.3-1.5-0.8-2
		c-0.2-0.2-0.4-0.3-0.7-0.5c-0.3-0.1-0.5-0.2-0.7-0.2S424.4,325.3,423.9,325.3z"/>
	<path fill="#174599" d="M435.2,324.3h0.8l3.4,7.5h-1.1l-1-2.2H434l-0.9,2.2h-1.1L435.2,324.3z M436.7,328.6l-1.2-2.7l-1.1,2.7
		H436.7z"/>
	<path fill="#174599" d="M446,324.3h1v7.5h-0.9l-5-5.8v5.8h-1v-7.5h0.9l5.1,5.8V324.3z"/>
	<path fill="#174599" d="M448.7,331.8v-7.5h2.5c1,0,1.8,0.2,2.4,0.5c0.6,0.3,1.1,0.8,1.4,1.3c0.4,0.6,0.5,1.2,0.5,1.9
		c0,0.5-0.1,1-0.3,1.4c-0.2,0.5-0.5,0.9-0.8,1.2c-0.4,0.4-0.8,0.6-1.3,0.8c-0.3,0.1-0.5,0.2-0.8,0.2c-0.2,0-0.7,0.1-1.4,0.1H448.7z
		 M451.1,325.3h-1.3v5.6h1.4c0.5,0,1,0,1.2-0.1s0.5-0.2,0.7-0.3c0.2-0.1,0.4-0.3,0.5-0.4c0.5-0.5,0.8-1.2,0.8-2c0-0.8-0.3-1.5-0.8-2
		c-0.2-0.2-0.4-0.3-0.7-0.5c-0.3-0.1-0.5-0.2-0.7-0.2S451.6,325.3,451.1,325.3z"/>
	<path fill="#174599" d="M460,331.8v-7.5h2.5c1,0,1.8,0.2,2.4,0.5c0.6,0.3,1.1,0.8,1.4,1.3c0.4,0.6,0.5,1.2,0.5,1.9
		c0,0.5-0.1,1-0.3,1.4c-0.2,0.5-0.5,0.9-0.8,1.2c-0.4,0.4-0.8,0.6-1.3,0.8c-0.3,0.1-0.5,0.2-0.8,0.2c-0.2,0-0.7,0.1-1.4,0.1H460z
		 M462.4,325.3H461v5.6h1.4c0.5,0,1,0,1.2-0.1s0.5-0.2,0.7-0.3c0.2-0.1,0.4-0.3,0.5-0.4c0.5-0.5,0.8-1.2,0.8-2c0-0.8-0.3-1.5-0.8-2
		c-0.2-0.2-0.4-0.3-0.7-0.5c-0.3-0.1-0.5-0.2-0.7-0.2S462.9,325.3,462.4,325.3z"/>
	<path fill="#174599" d="M468.2,331.8v-7.5h1.9c0.8,0,1.4,0.2,1.8,0.6c0.4,0.4,0.7,0.9,0.7,1.5c0,0.4-0.1,0.8-0.3,1.1
		s-0.5,0.6-0.9,0.7c0.2,0.2,0.5,0.4,0.7,0.6s0.6,0.7,1,1.4c0.3,0.4,0.5,0.7,0.6,1l0.4,0.5h-1.3l-0.3-0.5c0,0,0,0-0.1-0.1l-0.2-0.3
		l-0.3-0.5l-0.4-0.6c-0.2-0.3-0.4-0.6-0.6-0.7c-0.2-0.2-0.4-0.3-0.5-0.4c-0.1-0.1-0.4-0.1-0.7-0.1h-0.3v3.3H468.2z M469.6,325.2
		h-0.3v2.4h0.4c0.5,0,0.9,0,1.1-0.1c0.2-0.1,0.4-0.2,0.5-0.4s0.2-0.4,0.2-0.6c0-0.2-0.1-0.4-0.2-0.6s-0.3-0.3-0.5-0.4
		C470.5,325.3,470.1,325.2,469.6,325.2z"/>
	<path fill="#174599" d="M480,324.3h1.1v4.3c0,0.6,0,1-0.1,1.3s-0.2,0.5-0.3,0.7c-0.1,0.2-0.3,0.4-0.5,0.5c-0.6,0.5-1.4,0.8-2.3,0.8
		c-1,0-1.8-0.3-2.3-0.8c-0.2-0.2-0.3-0.3-0.5-0.5c-0.1-0.2-0.2-0.4-0.3-0.7s-0.1-0.7-0.1-1.3v-4.2h1.1v4.3c0,0.7,0.1,1.2,0.2,1.5
		s0.4,0.5,0.7,0.7c0.3,0.2,0.7,0.2,1.2,0.2c0.6,0,1.2-0.2,1.6-0.5c0.2-0.2,0.4-0.4,0.5-0.6s0.1-0.7,0.1-1.2V324.3z"/>
	<path fill="#174599" d="M486.6,328.1h2.5v3.2c-0.9,0.4-1.8,0.6-2.7,0.6c-1.2,0-2.2-0.4-3-1.1c-0.7-0.7-1.1-1.6-1.1-2.7
		c0-1.1,0.4-2,1.2-2.8c0.8-0.7,1.7-1.1,2.9-1.1c0.4,0,0.8,0,1.2,0.1c0.4,0.1,0.9,0.3,1.4,0.5v1.1c-0.9-0.5-1.8-0.8-2.7-0.8
		c-0.8,0-1.5,0.3-2.1,0.8c-0.6,0.6-0.8,1.2-0.8,2.1c0,0.9,0.3,1.5,0.8,2.1c0.6,0.5,1.3,0.8,2.2,0.8c0.4,0,0.9-0.1,1.5-0.3l0.1,0
		v-1.6h-1.4V328.1z"/>
	<path fill="#174599" d="M496.2,324.3h0.8l3.4,7.5h-1.1l-1-2.2H495l-0.9,2.2H493L496.2,324.3z M497.7,328.6l-1.2-2.7l-1.1,2.7H497.7
		z"/>
	<path fill="#174599" d="M501.1,331.8v-7.5h2.5c1,0,1.8,0.2,2.4,0.5c0.6,0.3,1.1,0.8,1.4,1.3c0.4,0.6,0.5,1.2,0.5,1.9
		c0,0.5-0.1,1-0.3,1.4c-0.2,0.5-0.5,0.9-0.8,1.2c-0.4,0.4-0.8,0.6-1.3,0.8c-0.3,0.1-0.5,0.2-0.8,0.2c-0.2,0-0.7,0.1-1.4,0.1H501.1z
		 M503.5,325.3h-1.3v5.6h1.4c0.5,0,1,0,1.2-0.1s0.5-0.2,0.7-0.3c0.2-0.1,0.4-0.3,0.5-0.4c0.5-0.5,0.8-1.2,0.8-2c0-0.8-0.3-1.5-0.8-2
		c-0.2-0.2-0.4-0.3-0.7-0.5c-0.3-0.1-0.5-0.2-0.7-0.2S504,325.3,503.5,325.3z"/>
	<path fill="#174599" d="M515.3,324.3h1v7.5h-1.1V326l-2.3,2.9h-0.2l-2.3-2.9v5.8h-1.1v-7.5h1l2.5,3.1L515.3,324.3z"/>
	<path fill="#174599" d="M517.9,324.3h1.1v7.5h-1.1V324.3z"/>
	<path fill="#174599" d="M526.6,324.3h1v7.5h-0.9l-5-5.8v5.8h-1v-7.5h0.9l5.1,5.8V324.3z"/>
	<path fill="#174599" d="M529.2,324.3h1.1v7.5h-1.1V324.3z"/>
	<path fill="#174599" d="M533.8,328.7l-0.8-0.5c-0.5-0.3-0.9-0.6-1.1-0.9c-0.2-0.3-0.3-0.6-0.3-1c0-0.6,0.2-1.1,0.6-1.4
		s0.9-0.6,1.6-0.6c0.6,0,1.2,0.2,1.7,0.5v1.2c-0.5-0.5-1.1-0.8-1.7-0.8c-0.4,0-0.6,0.1-0.9,0.2c-0.2,0.2-0.3,0.4-0.3,0.6
		c0,0.2,0.1,0.4,0.2,0.6c0.2,0.2,0.4,0.4,0.8,0.6l0.8,0.5c0.9,0.5,1.4,1.2,1.4,2.1c0,0.6-0.2,1.1-0.6,1.5c-0.4,0.4-0.9,0.6-1.6,0.6
		c-0.7,0-1.4-0.2-2-0.7v-1.4c0.6,0.7,1.2,1.1,2,1.1c0.3,0,0.6-0.1,0.8-0.3c0.2-0.2,0.3-0.4,0.3-0.7
		C534.8,329.5,534.5,329.1,533.8,328.7z"/>
	<path fill="#174599" d="M536.4,324.3h6.3v1H540v6.5h-1.1v-6.5h-2.6V324.3z"/>
	<path fill="#174599" d="M543.7,331.8v-7.5h1.9c0.8,0,1.4,0.2,1.8,0.6c0.4,0.4,0.7,0.9,0.7,1.5c0,0.4-0.1,0.8-0.3,1.1
		s-0.5,0.6-0.9,0.7c0.2,0.2,0.5,0.4,0.7,0.6s0.6,0.7,1,1.4c0.3,0.4,0.5,0.7,0.6,1l0.4,0.5h-1.3l-0.3-0.5c0,0,0,0-0.1-0.1l-0.2-0.3
		l-0.3-0.5l-0.4-0.6c-0.2-0.3-0.4-0.6-0.6-0.7c-0.2-0.2-0.4-0.3-0.5-0.4c-0.1-0.1-0.4-0.1-0.7-0.1h-0.3v3.3H543.7z M545.1,325.2
		h-0.3v2.4h0.4c0.5,0,0.9,0,1.1-0.1c0.2-0.1,0.4-0.2,0.5-0.4s0.2-0.4,0.2-0.6c0-0.2-0.1-0.4-0.2-0.6s-0.3-0.3-0.5-0.4
		C546,325.3,545.6,325.2,545.1,325.2z"/>
	<path fill="#174599" d="M552.7,324.3h0.8l3.4,7.5h-1.1l-1-2.2h-3.2l-0.9,2.2h-1.1L552.7,324.3z M554.2,328.6l-1.2-2.7l-1.1,2.7
		H554.2z"/>
	<path fill="#174599" d="M557,324.3h6.3v1h-2.6v6.5h-1.1v-6.5H557V324.3z"/>
	<path fill="#174599" d="M564.2,324.3h1.1v7.5h-1.1V324.3z"/>
	<path fill="#174599" d="M570.7,324.2c1.2,0,2.1,0.4,2.9,1.1c0.8,0.7,1.2,1.7,1.2,2.8s-0.4,2-1.2,2.7s-1.8,1.1-2.9,1.1
		c-1.1,0-2.1-0.4-2.8-1.1s-1.1-1.6-1.1-2.7c0-1.1,0.4-2,1.1-2.8C568.5,324.6,569.5,324.2,570.7,324.2z M570.7,325.2
		c-0.9,0-1.6,0.3-2.1,0.8s-0.8,1.2-0.8,2.1c0,0.8,0.3,1.5,0.8,2s1.2,0.8,2.1,0.8c0.8,0,1.5-0.3,2.1-0.8s0.8-1.2,0.8-2
		c0-0.8-0.3-1.5-0.8-2C572.2,325.5,571.5,325.2,570.7,325.2z"/>
	<path fill="#174599" d="M582,324.3h1v7.5h-0.9l-5-5.8v5.8h-1v-7.5h0.9l5.1,5.8V324.3z"/>
</g>
</svg>
