<?xml version="1.0" encoding="utf-8"?>
<!-- Generated by IcoMoon.io -->
<!DOCTYPE svg PUBLIC "-//W3C//DTD SVG 1.1//EN" "http://www.w3.org/Graphics/SVG/1.1/DTD/svg11.dtd">
<svg version="1.1" xmlns="http://www.w3.org/2000/svg" xmlns:xlink="http://www.w3.org/1999/xlink" width="16" height="14" viewBox="0 0 16 14">
<path d="M6.492 7.531q0 0.438-0.316 0.75t-0.754 0.312q-0.445 0-0.766-0.312t-0.32-0.75q0-0.445 0.324-0.766t0.762-0.32 0.754 0.32 0.316 0.766zM10.094 6.445q0.438 0 0.754 0.32t0.316 0.766q0 0.438-0.316 0.75t-0.754 0.312q-0.445 0-0.766-0.312t-0.32-0.75q0-0.445 0.324-0.766t0.762-0.32zM15.5 6.359q0 0.484-0.242 0.891t-0.648 0.641q0.039 0.258 0.039 0.477 0 0.945-0.535 1.801t-1.543 1.512q-0.977 0.641-2.23 0.98t-2.621 0.34q-1.375 0-2.629-0.34t-2.223-0.98q-1.008-0.656-1.543-1.508t-0.535-1.805q0-0.227 0.039-0.516-0.375-0.242-0.602-0.637t-0.227-0.855q0-0.734 0.516-1.25t1.25-0.516q0.648 0 1.156 0.43 1.937-1.234 4.625-1.281l1.047-3.305q0.031-0.109 0.137-0.168t0.223-0.035l2.711 0.641q0.172-0.391 0.535-0.633t0.801-0.242q0.602 0 1.027 0.426t0.426 1.027-0.426 1.031-1.027 0.43q-0.594 0-1.020-0.422t-0.434-1.023l-2.461-0.578-0.906 2.859q2.555 0.109 4.375 1.297 0.5-0.453 1.18-0.453 0.734 0 1.25 0.516t0.516 1.25zM13 0.602q-0.352 0-0.602 0.25t-0.25 0.602 0.25 0.602 0.602 0.25 0.602-0.25 0.25-0.602-0.25-0.602-0.602-0.25zM0.602 6.359q0 0.523 0.398 0.867 0.383-1.023 1.406-1.836-0.281-0.195-0.641-0.195-0.484 0-0.824 0.34t-0.34 0.824zM12.242 11.18q0.875-0.57 1.34-1.297t0.465-1.516-0.465-1.512-1.34-1.293q-0.906-0.586-2.074-0.902t-2.449-0.316-2.449 0.316-2.074 0.902q-0.875 0.57-1.34 1.293t-0.465 1.512 0.465 1.516 1.34 1.297q0.906 0.586 2.074 0.902t2.449 0.316 2.449-0.316 2.074-0.902zM14.453 7.273q0.445-0.359 0.445-0.914 0-0.484-0.34-0.824t-0.824-0.34q-0.383 0-0.672 0.219 1.023 0.82 1.391 1.859zM9.828 10.148q0.086-0.086 0.211-0.086t0.211 0.086 0.086 0.215-0.086 0.215q-0.773 0.773-2.492 0.773h-0.016q-1.719 0-2.492-0.773-0.086-0.086-0.086-0.215t0.086-0.215 0.211-0.086 0.211 0.086q0.602 0.602 2.070 0.602h0.016q1.469 0 2.070-0.602z" fill="#444444"></path>
</svg>
