<?xml version="1.0" encoding="utf-8"?>
<!-- Generated by IcoMoon.io -->
<!DOCTYPE svg PUBLIC "-//W3C//DTD SVG 1.1//EN" "http://www.w3.org/Graphics/SVG/1.1/DTD/svg11.dtd">
<svg version="1.1" xmlns="http://www.w3.org/2000/svg" xmlns:xlink="http://www.w3.org/1999/xlink" width="14" height="14" viewBox="0 0 14 14">
<path d="M9.797 4.977q0.125-0.664-0.164-1.031-0.406-0.508-1.461-0.352-0.133 0.023-0.32 0.098t-0.449 0.238-0.504 0.379-0.465 0.547-0.348 0.715q0.625-0.055 0.887 0.125t0.207 0.773q-0.039 0.406-0.406 1.117-0.336 0.609-0.555 0.773-0.344 0.25-0.68-0.109-0.18-0.187-0.293-0.504t-0.148-0.57-0.078-0.656-0.066-0.559q-0.18-1.008-0.266-1.281-0.094-0.289-0.277-0.539t-0.395-0.312q-0.445-0.125-0.992 0.195-0.422 0.25-1.066 0.828t-0.957 0.797v0.055q0.125 0.062 0.199 0.203t0.168 0.156q0.164 0.023 0.426-0.066t0.453-0.082 0.324 0.234q0.086 0.141 0.145 0.301t0.117 0.375 0.098 0.316q0.133 0.359 0.414 1.461 0.281 1.141 0.445 1.539 0.328 0.773 0.805 0.977 0.336 0.094 0.664 0.012t0.594-0.246q1.023-0.602 1.953-1.852 0.813-1.086 1.348-2.285t0.645-1.77zM12 3.25v7.5q0 0.93-0.66 1.59t-1.59 0.66h-7.5q-0.93 0-1.59-0.66t-0.66-1.59v-7.5q0-0.93 0.66-1.59t1.59-0.66h7.5q0.93 0 1.59 0.66t0.66 1.59z" fill="#444444"></path>
</svg>
