<?xml version="1.0" encoding="utf-8"?>
<!-- Generator: Adobe Illustrator 18.0.0, SVG Export Plug-In . SVG Version: 6.00 Build 0)  -->
<!DOCTYPE svg PUBLIC "-//W3C//DTD SVG 1.1//EN" "http://www.w3.org/Graphics/SVG/1.1/DTD/svg11.dtd">
<svg version="1.1" xmlns="http://www.w3.org/2000/svg" xmlns:xlink="http://www.w3.org/1999/xlink" x="0px" y="0px"
	 viewBox="0 0 2048 2048" enable-background="new 0 0 2048 2048" xml:space="preserve">
<g id="Guides">
</g>
<g id="Example_Icon" display="none">
	<g id="icomoon-ignore" display="inline">
	</g>
	<path display="inline" d="M1862.2,1920H512V128h714v1041l173.5-231.3h115.7l173.5,231.3V128h173.5c32,0,57.8,25.9,57.8,57.8v1676.3
		C1920,1894.2,1894.2,1920,1862.2,1920z M128,1862.2V185.8c0-31.9,25.9-57.8,57.8-57.8H384v1792H185.8
		C153.9,1920,128,1894.2,128,1862.2z"/>
</g>
<g id="Notes">
	<path d="M2033.3,737.9c13.1,4.8,19.6,14,19.6,27.6c0,13.7-6.5,22.9-19.6,27.6l-998,313.6c-2.4,0.6-5.3,0.9-8.9,0.9
		c-3.6,0-6.5-0.3-8.9-0.9l-581-183.6c-25.5,20.2-46.6,53.3-63.3,99.4c-16.6,46-26.7,99.1-30.3,159c37.4,21.4,56.1,53.8,56.1,97.1
		c0,41-17.2,72.8-51.7,95.3l51.7,385.8c1.2,8.3-1.2,15.7-7.1,22.3c-5.3,6.5-12.5,9.8-21.4,9.8H199.6c-8.9,0-16-3.3-21.4-9.8
		c-5.9-6.5-8.3-14-7.1-22.3l51.7-385.8c-34.5-22.6-51.7-54.4-51.7-95.3c0-43.4,19.3-76.3,57.9-98.9c6.5-123,35.6-221,87.3-294
		L19.6,793.2C6.5,788.4,0,779.2,0,765.5c0-13.7,6.5-22.9,19.6-27.6l998-313.6c2.4-0.6,5.3-0.9,8.9-0.9c3.6,0,6.5,0.3,8.9,0.9
		L2033.3,737.9L2033.3,737.9z M1580.7,1054.2l16,281.6c2.4,41-22,79-73.1,114.1c-51.1,35.1-120.9,62.8-209.4,83.3
		c-88.5,20.5-184.4,30.7-287.8,30.7c-103.4,0-199.3-10.3-287.8-30.7c-88.5-20.5-158.3-48.3-209.4-83.3
		c-51.1-35-75.4-73.1-73.1-114.1l16-281.6l511.5,161.3c13.1,4.2,27.3,6.2,42.8,6.2c15.4,0,29.7-2.1,42.8-6.2L1580.7,1054.2z"/>
</g>
</svg>
