<?xml version="1.0" encoding="utf-8"?>
<!-- Generator: Adobe Illustrator 18.0.0, SVG Export Plug-In . SVG Version: 6.00 Build 0)  -->
<!DOCTYPE svg PUBLIC "-//W3C//DTD SVG 1.1//EN" "http://www.w3.org/Graphics/SVG/1.1/DTD/svg11.dtd">
<svg version="1.1" xmlns="http://www.w3.org/2000/svg" xmlns:xlink="http://www.w3.org/1999/xlink" x="0px" y="0px"
	 viewBox="0 0 2048 2048" enable-background="new 0 0 2048 2048" xml:space="preserve">
<g id="Guides">
</g>
<g id="Example_Icon" display="none">
	<g id="icomoon-ignore" display="inline">
	</g>
	<path display="inline" d="M1862.2,1920H512V128h714v1041l173.5-231.3h115.7l173.5,231.3V128h173.5c32,0,57.8,25.9,57.8,57.8v1676.3
		C1920,1894.2,1894.2,1920,1862.2,1920z M128,1862.2V185.8c0-31.9,25.9-57.8,57.8-57.8H384v1792H185.8
		C153.9,1920,128,1894.2,128,1862.2z"/>
</g>
<g id="Notes">
	<path fill="#231F20" d="M580.3,2041.5c146.5,0,293.7-56.4,405.6-168l894.3-894.3h0.1C1991.9,867.3,2048.1,720,2048,573.6
		c0.1-146.6-56.1-293.9-167.8-405.6C1768.4,56.2,1621.1,0,1474.6,0C1328,0,1180.7,56.2,1069,168.3l-894.1,894.1
		C62.9,1174,6.5,1321.3,6.7,1467.8c-0.2,146.6,56,293.7,168.1,405.6C286.6,1985.3,433.7,2041.5,580.3,2041.5z M284.3,1171.9
		l894.3-894.3c81.8-82,188.5-122.6,296-122.8c107.5,0.2,214.1,40.8,296.2,122.6c6.5,6.5,11.1,14.1,17.1,20.9
		c-171.3-54.7-365.7-16.2-501.5,119.6L835.5,868.7l115.9,115.9l352.1,352.1l-427,427.1c-82.3,81.9-188.9,122.6-296.2,122.8
		c-107.4-0.2-213.8-40.8-296-122.8c-82.2-82-122.6-188.7-122.8-296C161.7,1360.5,202.2,1253.8,284.3,1171.9z"/>
</g>
</svg>
